<svg width="5627" height="578" viewBox="0 0 5627 578" fill="none" xmlns="http://www.w3.org/2000/svg">
<rect x="1220.13" y="154.064" width="115.618" height="115.618" fill="#191919"/>
<rect x="1220.13" y="308.113" width="115.618" height="115.618" fill="#191919"/>
<rect x="1374.2" y="462.188" width="115.618" height="115.618" fill="#191919"/>
<rect x="1528.24" y="462.188" width="115.618" height="115.618" fill="#191919"/>
<rect x="1528.24" y="308.113" width="115.618" height="115.618" fill="#191919"/>
<rect x="1374.2" width="115.618" height="115.618" fill="#191919"/>
<rect x="1528.24" width="115.618" height="115.618" fill="#191919"/>
<rect x="773.273" width="115.618" height="115.618" fill="#191919"/>
<rect x="773.273" y="154.064" width="115.618" height="115.618" fill="#191919"/>
<rect x="773.273" y="308.113" width="115.618" height="115.618" fill="#191919"/>
<rect x="773.273" y="462.188" width="115.618" height="115.618" fill="#191919"/>
<rect x="1998.23" width="115.618" height="115.618" fill="#191919"/>
<rect x="1998.23" y="154.064" width="115.618" height="115.618" fill="#191919"/>
<rect x="1998.23" y="308.113" width="115.618" height="115.618" fill="#191919"/>
<rect x="1998.23" y="462.188" width="115.618" height="115.618" fill="#191919"/>
<rect x="3214.17" width="115.618" height="115.618" fill="#191919"/>
<rect x="3214.17" y="154.064" width="115.618" height="115.618" fill="#191919"/>
<rect x="3214.17" y="308.113" width="115.618" height="115.618" fill="#191919"/>
<rect x="3214.17" y="462.188" width="115.618" height="115.618" fill="#191919"/>
<rect x="5202.79" width="115.618" height="115.618" fill="#191919"/>
<rect x="5356.83" width="115.618" height="115.618" fill="#191919"/>
<rect x="5510.9" width="115.618" height="115.618" fill="#191919"/>
<rect x="5202.79" y="154.064" width="115.618" height="115.618" fill="#191919"/>
<rect x="5510.9" y="308.113" width="115.618" height="115.618" fill="#191919"/>
<rect x="5356.83" y="154.064" width="115.618" height="115.618" fill="#191919"/>
<rect x="5510.9" y="462.188" width="115.618" height="115.618" fill="#191919"/>
<rect x="5356.83" y="462.188" width="115.618" height="115.618" fill="#191919"/>
<rect x="5202.79" y="462.188" width="115.618" height="115.618" fill="#191919"/>
<rect x="4439.7" width="115.618" height="115.618" fill="#191919"/>
<rect x="4439.7" y="154.064" width="115.618" height="115.618" fill="#191919"/>
<rect x="4439.7" y="308.113" width="115.618" height="115.618" fill="#191919"/>
<rect x="4439.7" y="462.188" width="115.618" height="115.618" fill="#191919"/>
<rect x="4593.77" y="462.188" width="115.618" height="115.618" fill="#191919"/>
<rect x="4747.84" y="462.188" width="115.618" height="115.618" fill="#191919"/>
<rect x="4593.77" y="231.088" width="115.618" height="115.618" fill="#191919"/>
<rect x="4593.77" width="115.618" height="115.618" fill="#191919"/>
<rect x="4747.84" width="115.618" height="115.618" fill="#191919"/>
<rect x="3676.63" width="115.618" height="115.618" fill="#191919"/>
<rect x="3676.63" y="154.064" width="115.618" height="115.618" fill="#191919"/>
<rect x="3676.63" y="308.113" width="115.618" height="115.618" fill="#191919"/>
<rect x="3676.63" y="462.188" width="115.618" height="115.618" fill="#191919"/>
<rect x="3830.7" y="462.188" width="115.618" height="115.618" fill="#191919"/>
<rect x="3984.76" y="462.188" width="115.618" height="115.618" fill="#191919"/>
<rect x="2605.16" width="115.618" height="115.618" fill="#191919"/>
<rect x="2759.21" width="115.618" height="115.618" fill="#191919"/>
<rect x="2451.09" width="115.618" height="115.618" fill="#191919"/>
<rect x="2605.16" y="154.064" width="115.618" height="115.618" fill="#191919"/>
<rect x="2605.16" y="308.113" width="115.618" height="115.618" fill="#191919"/>
<rect x="2605.16" y="462.188" width="115.618" height="115.618" fill="#191919"/>
<rect y="154.064" width="115.618" height="115.618" fill="#191919"/>
<rect y="308.113" width="115.618" height="115.618" fill="#191919"/>
<rect y="462.188" width="115.618" height="115.618" fill="#191919"/>
<rect width="115.618" height="115.618" fill="#191919"/>
<rect x="154.051" width="115.618" height="115.618" fill="#191919"/>
<rect x="308.113" y="154.064" width="115.618" height="115.618" fill="#191919"/>
<rect x="308.113" y="308.113" width="115.618" height="115.618" fill="#191919"/>
<rect x="154.051" y="462.188" width="115.618" height="115.618" fill="#191919"/>
</svg>
